# This file uses centimeters as units for non-parametric coordinates.

mtllib Pot1dirt.mtl
g default
v 0.147036 1.165809 -0.042308
v 0.143935 1.166439 0.104294
v 0.375567 1.082518 0.274260
v 0.423987 1.088615 -0.200571
v -0.032513 1.079050 0.457304
v -0.016889 1.161274 0.203595
v -0.406682 1.076881 0.187222
v -0.199871 1.160277 0.101248
v -0.370299 1.077910 -0.256226
v -0.144376 1.164885 -0.076701
v 0.026569 1.079066 -0.459936
v -0.010449 1.168378 -0.129272
vt 0.325285 0.660654
vt 0.322820 0.688041
vt 0.273389 0.714634
vt 0.275017 0.625139
vt 0.343250 0.761052
vt 0.349547 0.711348
vt 0.433256 0.706596
vt 0.367120 0.762402
vt 0.358675 0.713027
vt 0.391247 0.691021
vt 0.425836 0.623495
vt 0.380821 0.657666
vt 0.353034 0.582292
vt 0.356083 0.646831
vn 0.301136 0.952998 0.033351
vn 0.301136 0.952998 0.033351
vn 0.301136 0.952998 0.033351
vn 0.301136 0.952998 0.033351
vn 0.135184 0.943932 0.301194
vn 0.135184 0.943932 0.301194
vn 0.135184 0.943932 0.301194
vn 0.135184 0.943932 0.301194
vn -0.213505 0.925935 0.311545
vn -0.213505 0.925935 0.311545
vn -0.213505 0.925935 0.311545
vn -0.213505 0.925935 0.311545
vn -0.357578 0.932827 -0.044407
vn -0.357578 0.932827 -0.044407
vn -0.357578 0.932827 -0.044407
vn -0.357578 0.932827 -0.044407
vn -0.141581 0.950658 -0.276050
vn -0.141581 0.950658 -0.276050
vn -0.141581 0.950658 -0.276050
vn -0.141581 0.950658 -0.276050
vn 0.137195 0.961222 -0.239229
vn 0.137195 0.961222 -0.239229
vn 0.137195 0.961222 -0.239229
vn 0.137195 0.961222 -0.239229
s off
g aloe_unwrapped:Group39992
usemtl initialShadingGroup
f 1/1/1 2/2/2 3/3/3 4/4/4
f 5/5/5 3/3/6 2/2/7 6/6/8
f 7/7/9 5/8/10 6/9/11 8/10/12
f 9/11/13 7/7/14 8/10/15 10/12/16
f 11/13/17 9/11/18 10/12/19 12/14/20
f 12/14/21 1/1/22 4/4/23 11/13/24
